<?xml version="1.0" encoding="UTF-8" standalone="no"?>
<!DOCTYPE svg PUBLIC "-//W3C//DTD SVG 1.1//EN"
 "http://www.w3.org/Graphics/SVG/1.1/DTD/svg11.dtd">
<!-- Generated by graphviz version 2.40.1 (20161225.0304)
 -->
<!-- Title: dependencies Pages: 1 -->
<svg width="751pt" height="211pt"
 viewBox="0.00 0.00 751.00 211.00" xmlns="http://www.w3.org/2000/svg" xmlns:xlink="http://www.w3.org/1999/xlink">
<g id="graph0" class="graph" transform="scale(1 1) rotate(0) translate(4 207)">
<title>dependencies</title>
<polygon fill="#ffffff" stroke="transparent" points="-4,4 -4,-207 747,-207 747,4 -4,4"/>
<text text-anchor="start" x="350.5091" y="-42.4" font-family="sans-serif" font-weight="bold" font-size="14.00" fill="#000000">Legend</text>
<polygon fill="#ffffb3" stroke="transparent" points="137.5,-10 137.5,-30 157.5,-30 157.5,-10 137.5,-10"/>
<text text-anchor="start" x="161.129" y="-15.4" font-family="sans-serif" font-size="14.00" fill="#000000"> &#160;Declarations</text>
<polygon fill="#8dd3c7" stroke="transparent" points="250.5,-10 250.5,-30 270.5,-30 270.5,-10 250.5,-10"/>
<text text-anchor="start" x="274.2251" y="-15.4" font-family="sans-serif" font-size="14.00" fill="#000000"> &#160;Module</text>
<polygon fill="#80b1d3" stroke="transparent" points="336.5,-10 336.5,-30 356.5,-30 356.5,-10 336.5,-10"/>
<text text-anchor="start" x="360.2812" y="-15.4" font-family="sans-serif" font-size="14.00" fill="#000000"> &#160;Bootstrap</text>
<polygon fill="#fdb462" stroke="transparent" points="433.5,-10 433.5,-30 453.5,-30 453.5,-10 433.5,-10"/>
<text text-anchor="start" x="457.1732" y="-15.4" font-family="sans-serif" font-size="14.00" fill="#000000"> &#160;Providers</text>
<polygon fill="#fb8072" stroke="transparent" points="529.5,-10 529.5,-30 549.5,-30 549.5,-10 529.5,-10"/>
<text text-anchor="start" x="553.2258" y="-15.4" font-family="sans-serif" font-size="14.00" fill="#000000"> &#160;Exports</text>
<g id="clust1" class="cluster">
<title>cluster_WisnModule</title>
<polygon fill="none" stroke="#000000" stroke-dasharray="1,5" points="8,-70 8,-195 735,-195 735,-70 8,-70"/>
</g>
<g id="clust2" class="cluster">
<title>cluster_WisnModule_declarations</title>
<polygon fill="none" stroke="#000000" points="290,-78 290,-130 727,-130 727,-78 290,-78"/>
</g>
<g id="clust5" class="cluster">
<title>cluster_WisnModule_imports</title>
<polygon fill="none" stroke="#000000" points="16,-78 16,-130 282,-130 282,-78 16,-78"/>
</g>
<!-- WisnReportPaginationComponent -->
<g id="node1" class="node">
<title>WisnReportPaginationComponent</title>
<polygon fill="#ffffb3" stroke="#000000" points="719.3682,-122 510.6318,-122 510.6318,-86 719.3682,-86 719.3682,-122"/>
<text text-anchor="middle" x="615" y="-99.8" font-family="Times,serif" font-size="14.00" fill="#000000">WisnReportPaginationComponent</text>
</g>
<!-- WisnModule -->
<g id="node3" class="node">
<title>WisnModule</title>
<polygon fill="#8dd3c7" stroke="#000000" points="354.5997,-187 351.5997,-191 330.5997,-191 327.5997,-187 265.4003,-187 265.4003,-151 354.5997,-151 354.5997,-187"/>
<text text-anchor="middle" x="310" y="-164.8" font-family="Times,serif" font-size="14.00" fill="#000000">WisnModule</text>
</g>
<!-- WisnReportPaginationComponent&#45;&gt;WisnModule -->
<g id="edge1" class="edge">
<title>WisnReportPaginationComponent&#45;&gt;WisnModule</title>
<path fill="none" stroke="#000000" d="M615,-122.1061C615,-141.3391 615,-169 615,-169 615,-169 364.6763,-169 364.6763,-169"/>
<polygon fill="#000000" stroke="#000000" points="364.6763,-165.5001 354.6763,-169 364.6762,-172.5001 364.6763,-165.5001"/>
</g>
<!-- fromWisnContainers.containers -->
<g id="node2" class="node">
<title>fromWisnContainers.containers</title>
<polygon fill="#ffffb3" stroke="#000000" points="492.4445,-122 297.5555,-122 297.5555,-86 492.4445,-86 492.4445,-122"/>
<text text-anchor="middle" x="395" y="-99.8" font-family="Times,serif" font-size="14.00" fill="#000000">fromWisnContainers.containers</text>
</g>
<!-- fromWisnContainers.containers&#45;&gt;WisnModule -->
<g id="edge2" class="edge">
<title>fromWisnContainers.containers&#45;&gt;WisnModule</title>
<path fill="none" stroke="#000000" d="M326.1639,-122.1061C326.1639,-122.1061 326.1639,-140.991 326.1639,-140.991"/>
<polygon fill="#000000" stroke="#000000" points="322.664,-140.9909 326.1639,-150.991 329.664,-140.991 322.664,-140.9909"/>
</g>
<!-- SharedModule -->
<g id="node4" class="node">
<title>SharedModule</title>
<polygon fill="#8dd3c7" stroke="#000000" points="274.4231,-122 271.4231,-126 250.4231,-126 247.4231,-122 175.5769,-122 175.5769,-86 274.4231,-86 274.4231,-122"/>
<text text-anchor="middle" x="225" y="-99.8" font-family="Times,serif" font-size="14.00" fill="#000000">SharedModule</text>
</g>
<!-- SharedModule&#45;&gt;WisnModule -->
<g id="edge3" class="edge">
<title>SharedModule&#45;&gt;WisnModule</title>
<path fill="none" stroke="#000000" d="M269.8307,-122.1061C269.8307,-122.1061 269.8307,-140.991 269.8307,-140.991"/>
<polygon fill="#000000" stroke="#000000" points="266.3307,-140.9909 269.8307,-150.991 273.3307,-140.991 266.3307,-140.9909"/>
</g>
<!-- WisnRoutingModule -->
<g id="node5" class="node">
<title>WisnRoutingModule</title>
<polygon fill="#8dd3c7" stroke="#000000" points="158.2176,-122 155.2176,-126 134.2176,-126 131.2176,-122 23.7824,-122 23.7824,-86 158.2176,-86 158.2176,-122"/>
<text text-anchor="middle" x="91" y="-99.8" font-family="Times,serif" font-size="14.00" fill="#000000">WisnRoutingModule</text>
</g>
<!-- WisnRoutingModule&#45;&gt;WisnModule -->
<g id="edge4" class="edge">
<title>WisnRoutingModule&#45;&gt;WisnModule</title>
<path fill="none" stroke="#000000" d="M91,-122.1061C91,-141.3391 91,-169 91,-169 91,-169 255.4181,-169 255.4181,-169"/>
<polygon fill="#000000" stroke="#000000" points="255.4181,-172.5001 265.4181,-169 255.4181,-165.5001 255.4181,-172.5001"/>
</g>
</g>
</svg>
