<?xml version="1.0" encoding="UTF-8" standalone="no"?>
<!DOCTYPE svg PUBLIC "-//W3C//DTD SVG 1.1//EN"
 "http://www.w3.org/Graphics/SVG/1.1/DTD/svg11.dtd">
<!-- Generated by graphviz version 2.40.1 (20161225.0304)
 -->
<!-- Title: dependencies Pages: 1 -->
<svg width="644pt" height="211pt"
 viewBox="0.00 0.00 644.00 211.00" xmlns="http://www.w3.org/2000/svg" xmlns:xlink="http://www.w3.org/1999/xlink">
<g id="graph0" class="graph" transform="scale(1 1) rotate(0) translate(4 207)">
<title>dependencies</title>
<polygon fill="#ffffff" stroke="transparent" points="-4,4 -4,-207 640,-207 640,4 -4,4"/>
<text text-anchor="start" x="297.0091" y="-42.4" font-family="sans-serif" font-weight="bold" font-size="14.00" fill="#000000">Legend</text>
<polygon fill="#ffffb3" stroke="transparent" points="84,-10 84,-30 104,-30 104,-10 84,-10"/>
<text text-anchor="start" x="107.629" y="-15.4" font-family="sans-serif" font-size="14.00" fill="#000000"> &#160;Declarations</text>
<polygon fill="#8dd3c7" stroke="transparent" points="197,-10 197,-30 217,-30 217,-10 197,-10"/>
<text text-anchor="start" x="220.7251" y="-15.4" font-family="sans-serif" font-size="14.00" fill="#000000"> &#160;Module</text>
<polygon fill="#80b1d3" stroke="transparent" points="283,-10 283,-30 303,-30 303,-10 283,-10"/>
<text text-anchor="start" x="306.7812" y="-15.4" font-family="sans-serif" font-size="14.00" fill="#000000"> &#160;Bootstrap</text>
<polygon fill="#fdb462" stroke="transparent" points="380,-10 380,-30 400,-30 400,-10 380,-10"/>
<text text-anchor="start" x="403.6732" y="-15.4" font-family="sans-serif" font-size="14.00" fill="#000000"> &#160;Providers</text>
<polygon fill="#fb8072" stroke="transparent" points="476,-10 476,-30 496,-30 496,-10 476,-10"/>
<text text-anchor="start" x="499.7258" y="-15.4" font-family="sans-serif" font-size="14.00" fill="#000000"> &#160;Exports</text>
<g id="clust1" class="cluster">
<title>cluster_SetupModule</title>
<polygon fill="none" stroke="#000000" stroke-dasharray="1,5" points="8,-70 8,-195 628,-195 628,-70 8,-70"/>
</g>
<g id="clust2" class="cluster">
<title>cluster_SetupModule_declarations</title>
<polygon fill="none" stroke="#000000" points="292,-78 292,-130 620,-130 620,-78 292,-78"/>
</g>
<g id="clust5" class="cluster">
<title>cluster_SetupModule_imports</title>
<polygon fill="none" stroke="#000000" points="16,-78 16,-130 284,-130 284,-78 16,-78"/>
</g>
<!-- SetupComponent -->
<g id="node1" class="node">
<title>SetupComponent</title>
<polygon fill="#ffffb3" stroke="#000000" points="611.7204,-122 498.2796,-122 498.2796,-86 611.7204,-86 611.7204,-122"/>
<text text-anchor="middle" x="555" y="-99.8" font-family="Times,serif" font-size="14.00" fill="#000000">SetupComponent</text>
</g>
<!-- SetupModule -->
<g id="node3" class="node">
<title>SetupModule</title>
<polygon fill="#8dd3c7" stroke="#000000" points="344.9387,-187 341.9387,-191 320.9387,-191 317.9387,-187 253.0613,-187 253.0613,-151 344.9387,-151 344.9387,-187"/>
<text text-anchor="middle" x="299" y="-164.8" font-family="Times,serif" font-size="14.00" fill="#000000">SetupModule</text>
</g>
<!-- SetupComponent&#45;&gt;SetupModule -->
<g id="edge1" class="edge">
<title>SetupComponent&#45;&gt;SetupModule</title>
<path fill="none" stroke="#000000" d="M555,-122.1061C555,-141.3391 555,-169 555,-169 555,-169 354.7677,-169 354.7677,-169"/>
<polygon fill="#000000" stroke="#000000" points="354.7677,-165.5001 344.7677,-169 354.7676,-172.5001 354.7677,-165.5001"/>
</g>
<!-- SetupNotificationComponent -->
<g id="node2" class="node">
<title>SetupNotificationComponent</title>
<polygon fill="#ffffb3" stroke="#000000" points="480.3696,-122 299.6304,-122 299.6304,-86 480.3696,-86 480.3696,-122"/>
<text text-anchor="middle" x="390" y="-99.8" font-family="Times,serif" font-size="14.00" fill="#000000">SetupNotificationComponent</text>
</g>
<!-- SetupNotificationComponent&#45;&gt;SetupModule -->
<g id="edge2" class="edge">
<title>SetupNotificationComponent&#45;&gt;SetupModule</title>
<path fill="none" stroke="#000000" d="M322.142,-122.1061C322.142,-122.1061 322.142,-140.991 322.142,-140.991"/>
<polygon fill="#000000" stroke="#000000" points="318.6421,-140.9909 322.142,-150.991 325.6421,-140.991 318.6421,-140.9909"/>
</g>
<!-- SetupRoutingModule -->
<g id="node4" class="node">
<title>SetupRoutingModule</title>
<polygon fill="#8dd3c7" stroke="#000000" points="276.0561,-122 273.0561,-126 252.0561,-126 249.0561,-122 139.9439,-122 139.9439,-86 276.0561,-86 276.0561,-122"/>
<text text-anchor="middle" x="208" y="-99.8" font-family="Times,serif" font-size="14.00" fill="#000000">SetupRoutingModule</text>
</g>
<!-- SetupRoutingModule&#45;&gt;SetupModule -->
<g id="edge3" class="edge">
<title>SetupRoutingModule&#45;&gt;SetupModule</title>
<path fill="none" stroke="#000000" d="M264.7795,-122.1061C264.7795,-122.1061 264.7795,-140.991 264.7795,-140.991"/>
<polygon fill="#000000" stroke="#000000" points="261.2795,-140.9909 264.7795,-150.991 268.2795,-140.991 261.2795,-140.9909"/>
</g>
<!-- SharedModule -->
<g id="node5" class="node">
<title>SharedModule</title>
<polygon fill="#8dd3c7" stroke="#000000" points="122.4231,-122 119.4231,-126 98.4231,-126 95.4231,-122 23.5769,-122 23.5769,-86 122.4231,-86 122.4231,-122"/>
<text text-anchor="middle" x="73" y="-99.8" font-family="Times,serif" font-size="14.00" fill="#000000">SharedModule</text>
</g>
<!-- SharedModule&#45;&gt;SetupModule -->
<g id="edge4" class="edge">
<title>SharedModule&#45;&gt;SetupModule</title>
<path fill="none" stroke="#000000" d="M73,-122.1061C73,-141.3391 73,-169 73,-169 73,-169 243.2655,-169 243.2655,-169"/>
<polygon fill="#000000" stroke="#000000" points="243.2656,-172.5001 253.2655,-169 243.2655,-165.5001 243.2656,-172.5001"/>
</g>
</g>
</svg>
