<?xml version="1.0" encoding="UTF-8" standalone="no"?>
<!DOCTYPE svg PUBLIC "-//W3C//DTD SVG 1.1//EN"
 "http://www.w3.org/Graphics/SVG/1.1/DTD/svg11.dtd">
<!-- Generated by graphviz version 2.40.1 (20161225.0304)
 -->
<!-- Title: dependencies Pages: 1 -->
<svg width="504pt" height="284pt"
 viewBox="0.00 0.00 504.00 284.00" xmlns="http://www.w3.org/2000/svg" xmlns:xlink="http://www.w3.org/1999/xlink">
<g id="graph0" class="graph" transform="scale(1 1) rotate(0) translate(4 280)">
<title>dependencies</title>
<polygon fill="#ffffff" stroke="transparent" points="-4,4 -4,-280 500,-280 500,4 -4,4"/>
<text text-anchor="start" x="227.0091" y="-42.4" font-family="sans-serif" font-weight="bold" font-size="14.00" fill="#000000">Legend</text>
<polygon fill="#ffffb3" stroke="transparent" points="14,-10 14,-30 34,-30 34,-10 14,-10"/>
<text text-anchor="start" x="37.629" y="-15.4" font-family="sans-serif" font-size="14.00" fill="#000000"> &#160;Declarations</text>
<polygon fill="#8dd3c7" stroke="transparent" points="127,-10 127,-30 147,-30 147,-10 127,-10"/>
<text text-anchor="start" x="150.7251" y="-15.4" font-family="sans-serif" font-size="14.00" fill="#000000"> &#160;Module</text>
<polygon fill="#80b1d3" stroke="transparent" points="213,-10 213,-30 233,-30 233,-10 213,-10"/>
<text text-anchor="start" x="236.7812" y="-15.4" font-family="sans-serif" font-size="14.00" fill="#000000"> &#160;Bootstrap</text>
<polygon fill="#fdb462" stroke="transparent" points="310,-10 310,-30 330,-30 330,-10 310,-10"/>
<text text-anchor="start" x="333.6732" y="-15.4" font-family="sans-serif" font-size="14.00" fill="#000000"> &#160;Providers</text>
<polygon fill="#fb8072" stroke="transparent" points="406,-10 406,-30 426,-30 426,-10 406,-10"/>
<text text-anchor="start" x="429.7258" y="-15.4" font-family="sans-serif" font-size="14.00" fill="#000000"> &#160;Exports</text>
<g id="clust1" class="cluster">
<title>cluster_AppModule</title>
<polygon fill="none" stroke="#000000" stroke-dasharray="1,5" points="10.5,-70 10.5,-268 485.5,-268 485.5,-70 10.5,-70"/>
</g>
<g id="clust2" class="cluster">
<title>cluster_AppModule_declarations</title>
<polygon fill="none" stroke="#000000" points="355.5,-78 355.5,-130 477.5,-130 477.5,-78 355.5,-78"/>
</g>
<g id="clust4" class="cluster">
<title>cluster_AppModule_imports</title>
<polygon fill="none" stroke="#000000" points="18.5,-78 18.5,-130 347.5,-130 347.5,-78 18.5,-78"/>
</g>
<g id="clust6" class="cluster">
<title>cluster_AppModule_bootstrap</title>
<polygon fill="none" stroke="#000000" points="177.5,-208 177.5,-260 301.5,-260 301.5,-208 177.5,-208"/>
</g>
<!-- AppComponent -->
<g id="node1" class="node">
<title>AppComponent</title>
<polygon fill="#ffffb3" stroke="#000000" points="469.4399,-122 363.5601,-122 363.5601,-86 469.4399,-86 469.4399,-122"/>
<text text-anchor="middle" x="416.5" y="-99.8" font-family="Times,serif" font-size="14.00" fill="#000000">AppComponent</text>
</g>
<!-- AppModule -->
<g id="node2" class="node">
<title>AppModule</title>
<polygon fill="#8dd3c7" stroke="#000000" points="281.1571,-187 278.1571,-191 257.1571,-191 254.1571,-187 197.8429,-187 197.8429,-151 281.1571,-151 281.1571,-187"/>
<text text-anchor="middle" x="239.5" y="-164.8" font-family="Times,serif" font-size="14.00" fill="#000000">AppModule</text>
</g>
<!-- AppComponent&#45;&gt;AppModule -->
<g id="edge1" class="edge">
<title>AppComponent&#45;&gt;AppModule</title>
<path fill="none" stroke="#000000" d="M416.5,-122.1061C416.5,-141.3391 416.5,-169 416.5,-169 416.5,-169 291.4465,-169 291.4465,-169"/>
<polygon fill="#000000" stroke="#000000" points="291.4466,-165.5001 281.4465,-169 291.4465,-172.5001 291.4466,-165.5001"/>
</g>
<!-- AppComponent  -->
<g id="node6" class="node">
<title>AppComponent </title>
<polygon fill="#80b1d3" stroke="#000000" points="293.939,-252 185.061,-252 185.061,-216 293.939,-216 293.939,-252"/>
<text text-anchor="middle" x="239.5" y="-229.8" font-family="Times,serif" font-size="14.00" fill="#000000">AppComponent </text>
</g>
<!-- AppModule&#45;&gt;AppComponent  -->
<g id="edge5" class="edge">
<title>AppModule&#45;&gt;AppComponent </title>
<path fill="none" stroke="#000000" stroke-dasharray="1,5" d="M239.5,-187.1061C239.5,-187.1061 239.5,-205.991 239.5,-205.991"/>
<polygon fill="#000000" stroke="#000000" points="236.0001,-205.9909 239.5,-215.991 243.0001,-205.991 236.0001,-205.9909"/>
</g>
<!-- !environment -->
<g id="node3" class="node">
<title>!environment</title>
<polygon fill="#8dd3c7" stroke="#000000" points="339.4232,-122 336.4232,-126 315.4232,-126 312.4232,-122 247.5768,-122 247.5768,-86 339.4232,-86 339.4232,-122"/>
<text text-anchor="middle" x="293.5" y="-99.8" font-family="Times,serif" font-size="14.00" fill="#000000">!environment</text>
</g>
<!-- !environment&#45;&gt;AppModule -->
<g id="edge2" class="edge">
<title>!environment&#45;&gt;AppModule</title>
<path fill="none" stroke="#000000" d="M264.5585,-122.1061C264.5585,-122.1061 264.5585,-140.991 264.5585,-140.991"/>
<polygon fill="#000000" stroke="#000000" points="261.0586,-140.9909 264.5585,-150.991 268.0586,-140.991 261.0586,-140.9909"/>
</g>
<!-- CoreModule -->
<g id="node4" class="node">
<title>CoreModule</title>
<polygon fill="#8dd3c7" stroke="#000000" points="229.7619,-122 226.7619,-126 205.7619,-126 202.7619,-122 143.2381,-122 143.2381,-86 229.7619,-86 229.7619,-122"/>
<text text-anchor="middle" x="186.5" y="-99.8" font-family="Times,serif" font-size="14.00" fill="#000000">CoreModule</text>
</g>
<!-- CoreModule&#45;&gt;AppModule -->
<g id="edge3" class="edge">
<title>CoreModule&#45;&gt;AppModule</title>
<path fill="none" stroke="#000000" d="M213.7763,-122.1061C213.7763,-122.1061 213.7763,-140.991 213.7763,-140.991"/>
<polygon fill="#000000" stroke="#000000" points="210.2764,-140.9909 213.7763,-150.991 217.2764,-140.991 210.2764,-140.9909"/>
</g>
<!-- SharedModule -->
<g id="node5" class="node">
<title>SharedModule</title>
<polygon fill="#8dd3c7" stroke="#000000" points="124.9231,-122 121.9231,-126 100.9231,-126 97.9231,-122 26.0769,-122 26.0769,-86 124.9231,-86 124.9231,-122"/>
<text text-anchor="middle" x="75.5" y="-99.8" font-family="Times,serif" font-size="14.00" fill="#000000">SharedModule</text>
</g>
<!-- SharedModule&#45;&gt;AppModule -->
<g id="edge4" class="edge">
<title>SharedModule&#45;&gt;AppModule</title>
<path fill="none" stroke="#000000" d="M75.5,-122.1061C75.5,-141.3391 75.5,-169 75.5,-169 75.5,-169 187.6915,-169 187.6915,-169"/>
<polygon fill="#000000" stroke="#000000" points="187.6916,-172.5001 197.6915,-169 187.6915,-165.5001 187.6916,-172.5001"/>
</g>
</g>
</svg>
