<?xml version="1.0" encoding="UTF-8" standalone="no"?>
<!DOCTYPE svg PUBLIC "-//W3C//DTD SVG 1.1//EN"
 "http://www.w3.org/Graphics/SVG/1.1/DTD/svg11.dtd">
<!-- Generated by graphviz version 2.40.1 (20161225.0304)
 -->
<!-- Title: dependencies Pages: 1 -->
<svg width="584pt" height="284pt"
 viewBox="0.00 0.00 584.00 284.00" xmlns="http://www.w3.org/2000/svg" xmlns:xlink="http://www.w3.org/1999/xlink">
<g id="graph0" class="graph" transform="scale(1 1) rotate(0) translate(4 280)">
<title>dependencies</title>
<polygon fill="#ffffff" stroke="transparent" points="-4,4 -4,-280 580,-280 580,4 -4,4"/>
<text text-anchor="start" x="267.0091" y="-42.4" font-family="sans-serif" font-weight="bold" font-size="14.00" fill="#000000">Legend</text>
<polygon fill="#ffffb3" stroke="transparent" points="54,-10 54,-30 74,-30 74,-10 54,-10"/>
<text text-anchor="start" x="77.629" y="-15.4" font-family="sans-serif" font-size="14.00" fill="#000000"> &#160;Declarations</text>
<polygon fill="#8dd3c7" stroke="transparent" points="167,-10 167,-30 187,-30 187,-10 167,-10"/>
<text text-anchor="start" x="190.7251" y="-15.4" font-family="sans-serif" font-size="14.00" fill="#000000"> &#160;Module</text>
<polygon fill="#80b1d3" stroke="transparent" points="253,-10 253,-30 273,-30 273,-10 253,-10"/>
<text text-anchor="start" x="276.7812" y="-15.4" font-family="sans-serif" font-size="14.00" fill="#000000"> &#160;Bootstrap</text>
<polygon fill="#fdb462" stroke="transparent" points="350,-10 350,-30 370,-30 370,-10 350,-10"/>
<text text-anchor="start" x="373.6732" y="-15.4" font-family="sans-serif" font-size="14.00" fill="#000000"> &#160;Providers</text>
<polygon fill="#fb8072" stroke="transparent" points="446,-10 446,-30 466,-30 466,-10 446,-10"/>
<text text-anchor="start" x="469.7258" y="-15.4" font-family="sans-serif" font-size="14.00" fill="#000000"> &#160;Exports</text>
<g id="clust1" class="cluster">
<title>cluster_AppModule</title>
<polygon fill="none" stroke="#000000" stroke-dasharray="1,5" points="8,-70 8,-268 568,-268 568,-70 8,-70"/>
</g>
<g id="clust2" class="cluster">
<title>cluster_AppModule_declarations</title>
<polygon fill="none" stroke="#000000" points="438,-78 438,-130 560,-130 560,-78 438,-78"/>
</g>
<g id="clust4" class="cluster">
<title>cluster_AppModule_imports</title>
<polygon fill="none" stroke="#000000" points="16,-78 16,-130 430,-130 430,-78 16,-78"/>
</g>
<g id="clust6" class="cluster">
<title>cluster_AppModule_bootstrap</title>
<polygon fill="none" stroke="#000000" points="245,-208 245,-260 369,-260 369,-208 245,-208"/>
</g>
<!-- AppComponent -->
<g id="node1" class="node">
<title>AppComponent</title>
<polygon fill="#ffffb3" stroke="#000000" points="551.9399,-122 446.0601,-122 446.0601,-86 551.9399,-86 551.9399,-122"/>
<text text-anchor="middle" x="499" y="-99.8" font-family="Times,serif" font-size="14.00" fill="#000000">AppComponent</text>
</g>
<!-- AppModule -->
<g id="node2" class="node">
<title>AppModule</title>
<polygon fill="#8dd3c7" stroke="#000000" points="348.6571,-187 345.6571,-191 324.6571,-191 321.6571,-187 265.3429,-187 265.3429,-151 348.6571,-151 348.6571,-187"/>
<text text-anchor="middle" x="307" y="-164.8" font-family="Times,serif" font-size="14.00" fill="#000000">AppModule</text>
</g>
<!-- AppComponent&#45;&gt;AppModule -->
<g id="edge1" class="edge">
<title>AppComponent&#45;&gt;AppModule</title>
<path fill="none" stroke="#000000" d="M499,-122.2843C499,-143.3211 499,-175 499,-175 499,-175 358.6611,-175 358.6611,-175"/>
<polygon fill="#000000" stroke="#000000" points="358.6612,-171.5001 348.6611,-175 358.6611,-178.5001 358.6612,-171.5001"/>
</g>
<!-- AppComponent  -->
<g id="node7" class="node">
<title>AppComponent </title>
<polygon fill="#80b1d3" stroke="#000000" points="361.439,-252 252.561,-252 252.561,-216 361.439,-216 361.439,-252"/>
<text text-anchor="middle" x="307" y="-229.8" font-family="Times,serif" font-size="14.00" fill="#000000">AppComponent </text>
</g>
<!-- AppModule&#45;&gt;AppComponent  -->
<g id="edge6" class="edge">
<title>AppModule&#45;&gt;AppComponent </title>
<path fill="none" stroke="#000000" stroke-dasharray="1,5" d="M307,-187.1061C307,-187.1061 307,-205.991 307,-205.991"/>
<polygon fill="#000000" stroke="#000000" points="303.5001,-205.9909 307,-215.991 310.5001,-205.991 303.5001,-205.9909"/>
</g>
<!-- ! -->
<g id="node3" class="node">
<title>!</title>
<polygon fill="#8dd3c7" stroke="#000000" points="422,-122 419,-126 398,-126 395,-122 368,-122 368,-86 422,-86 422,-122"/>
<text text-anchor="middle" x="395" y="-99.8" font-family="Times,serif" font-size="14.00" fill="#000000">!</text>
</g>
<!-- !&#45;&gt;AppModule -->
<g id="edge2" class="edge">
<title>!&#45;&gt;AppModule</title>
<path fill="none" stroke="#000000" d="M395,-122.0225C395,-139.3734 395,-163 395,-163 395,-163 358.6806,-163 358.6806,-163"/>
<polygon fill="#000000" stroke="#000000" points="358.6807,-159.5001 348.6806,-163 358.6806,-166.5001 358.6807,-159.5001"/>
</g>
<!-- CoreModule -->
<g id="node4" class="node">
<title>CoreModule</title>
<polygon fill="#8dd3c7" stroke="#000000" points="350.2619,-122 347.2619,-126 326.2619,-126 323.2619,-122 263.7381,-122 263.7381,-86 350.2619,-86 350.2619,-122"/>
<text text-anchor="middle" x="307" y="-99.8" font-family="Times,serif" font-size="14.00" fill="#000000">CoreModule</text>
</g>
<!-- CoreModule&#45;&gt;AppModule -->
<g id="edge3" class="edge">
<title>CoreModule&#45;&gt;AppModule</title>
<path fill="none" stroke="#000000" d="M307,-122.1061C307,-122.1061 307,-140.991 307,-140.991"/>
<polygon fill="#000000" stroke="#000000" points="303.5001,-140.9909 307,-150.991 310.5001,-140.991 303.5001,-140.9909"/>
</g>
<!-- RoutingModule -->
<g id="node5" class="node">
<title>RoutingModule</title>
<polygon fill="#8dd3c7" stroke="#000000" points="245.1681,-122 242.1681,-126 221.1681,-126 218.1681,-122 140.8319,-122 140.8319,-86 245.1681,-86 245.1681,-122"/>
<text text-anchor="middle" x="193" y="-99.8" font-family="Times,serif" font-size="14.00" fill="#000000">RoutingModule</text>
</g>
<!-- RoutingModule&#45;&gt;AppModule -->
<g id="edge4" class="edge">
<title>RoutingModule&#45;&gt;AppModule</title>
<path fill="none" stroke="#000000" d="M193,-122.0225C193,-139.3734 193,-163 193,-163 193,-163 255.1979,-163 255.1979,-163"/>
<polygon fill="#000000" stroke="#000000" points="255.198,-166.5001 265.1979,-163 255.1979,-159.5001 255.198,-166.5001"/>
</g>
<!-- SharedModule -->
<g id="node6" class="node">
<title>SharedModule</title>
<polygon fill="#8dd3c7" stroke="#000000" points="122.4231,-122 119.4231,-126 98.4231,-126 95.4231,-122 23.5769,-122 23.5769,-86 122.4231,-86 122.4231,-122"/>
<text text-anchor="middle" x="73" y="-99.8" font-family="Times,serif" font-size="14.00" fill="#000000">SharedModule</text>
</g>
<!-- SharedModule&#45;&gt;AppModule -->
<g id="edge5" class="edge">
<title>SharedModule&#45;&gt;AppModule</title>
<path fill="none" stroke="#000000" d="M73,-122.2843C73,-143.3211 73,-175 73,-175 73,-175 255.1655,-175 255.1655,-175"/>
<polygon fill="#000000" stroke="#000000" points="255.1655,-178.5001 265.1655,-175 255.1655,-171.5001 255.1655,-178.5001"/>
</g>
</g>
</svg>
