<?xml version="1.0" encoding="UTF-8" standalone="no"?>
<!DOCTYPE svg PUBLIC "-//W3C//DTD SVG 1.1//EN"
 "http://www.w3.org/Graphics/SVG/1.1/DTD/svg11.dtd">
<!-- Generated by graphviz version 2.40.1 (20161225.0304)
 -->
<!-- Title: dependencies Pages: 1 -->
<svg width="704pt" height="211pt"
 viewBox="0.00 0.00 704.00 211.00" xmlns="http://www.w3.org/2000/svg" xmlns:xlink="http://www.w3.org/1999/xlink">
<g id="graph0" class="graph" transform="scale(1 1) rotate(0) translate(4 207)">
<title>dependencies</title>
<polygon fill="#ffffff" stroke="transparent" points="-4,4 -4,-207 700,-207 700,4 -4,4"/>
<text text-anchor="start" x="327.0091" y="-42.4" font-family="sans-serif" font-weight="bold" font-size="14.00" fill="#000000">Legend</text>
<polygon fill="#ffffb3" stroke="transparent" points="114,-10 114,-30 134,-30 134,-10 114,-10"/>
<text text-anchor="start" x="137.629" y="-15.4" font-family="sans-serif" font-size="14.00" fill="#000000"> &#160;Declarations</text>
<polygon fill="#8dd3c7" stroke="transparent" points="227,-10 227,-30 247,-30 247,-10 227,-10"/>
<text text-anchor="start" x="250.7251" y="-15.4" font-family="sans-serif" font-size="14.00" fill="#000000"> &#160;Module</text>
<polygon fill="#80b1d3" stroke="transparent" points="313,-10 313,-30 333,-30 333,-10 313,-10"/>
<text text-anchor="start" x="336.7812" y="-15.4" font-family="sans-serif" font-size="14.00" fill="#000000"> &#160;Bootstrap</text>
<polygon fill="#fdb462" stroke="transparent" points="410,-10 410,-30 430,-30 430,-10 410,-10"/>
<text text-anchor="start" x="433.6732" y="-15.4" font-family="sans-serif" font-size="14.00" fill="#000000"> &#160;Providers</text>
<polygon fill="#fb8072" stroke="transparent" points="506,-10 506,-30 526,-30 526,-10 506,-10"/>
<text text-anchor="start" x="529.7258" y="-15.4" font-family="sans-serif" font-size="14.00" fill="#000000"> &#160;Exports</text>
<g id="clust1" class="cluster">
<title>cluster_PoaModule</title>
<polygon fill="none" stroke="#000000" stroke-dasharray="1,5" points="8,-70 8,-195 688,-195 688,-70 8,-70"/>
</g>
<g id="clust2" class="cluster">
<title>cluster_PoaModule_declarations</title>
<polygon fill="none" stroke="#000000" points="282,-78 282,-130 680,-130 680,-78 282,-78"/>
</g>
<g id="clust5" class="cluster">
<title>cluster_PoaModule_imports</title>
<polygon fill="none" stroke="#000000" points="16,-78 16,-130 274,-130 274,-78 16,-78"/>
</g>
<!-- StandardPackageComponent -->
<g id="node1" class="node">
<title>StandardPackageComponent</title>
<polygon fill="#ffffb3" stroke="#000000" points="671.7366,-122 494.2634,-122 494.2634,-86 671.7366,-86 671.7366,-122"/>
<text text-anchor="middle" x="583" y="-99.8" font-family="Times,serif" font-size="14.00" fill="#000000">StandardPackageComponent</text>
</g>
<!-- PoaModule -->
<g id="node3" class="node">
<title>PoaModule</title>
<polygon fill="#8dd3c7" stroke="#000000" points="333.0483,-187 330.0483,-191 309.0483,-191 306.0483,-187 252.9517,-187 252.9517,-151 333.0483,-151 333.0483,-187"/>
<text text-anchor="middle" x="293" y="-164.8" font-family="Times,serif" font-size="14.00" fill="#000000">PoaModule</text>
</g>
<!-- StandardPackageComponent&#45;&gt;PoaModule -->
<g id="edge1" class="edge">
<title>StandardPackageComponent&#45;&gt;PoaModule</title>
<path fill="none" stroke="#000000" d="M583,-122.1061C583,-141.3391 583,-169 583,-169 583,-169 343.3233,-169 343.3233,-169"/>
<polygon fill="#000000" stroke="#000000" points="343.3233,-165.5001 333.3233,-169 343.3232,-172.5001 343.3233,-165.5001"/>
</g>
<!-- fromPoaContainers.containers -->
<g id="node2" class="node">
<title>fromPoaContainers.containers</title>
<polygon fill="#ffffb3" stroke="#000000" points="475.8914,-122 290.1086,-122 290.1086,-86 475.8914,-86 475.8914,-122"/>
<text text-anchor="middle" x="383" y="-99.8" font-family="Times,serif" font-size="14.00" fill="#000000">fromPoaContainers.containers</text>
</g>
<!-- fromPoaContainers.containers&#45;&gt;PoaModule -->
<g id="edge2" class="edge">
<title>fromPoaContainers.containers&#45;&gt;PoaModule</title>
<path fill="none" stroke="#000000" d="M311.6639,-122.1061C311.6639,-122.1061 311.6639,-140.991 311.6639,-140.991"/>
<polygon fill="#000000" stroke="#000000" points="308.164,-140.9909 311.6639,-150.991 315.164,-140.991 308.164,-140.9909"/>
</g>
<!-- PoaRoutingModule -->
<g id="node4" class="node">
<title>PoaRoutingModule</title>
<polygon fill="#8dd3c7" stroke="#000000" points="265.6652,-122 262.6652,-126 241.6652,-126 238.6652,-122 140.3348,-122 140.3348,-86 265.6652,-86 265.6652,-122"/>
<text text-anchor="middle" x="203" y="-99.8" font-family="Times,serif" font-size="14.00" fill="#000000">PoaRoutingModule</text>
</g>
<!-- PoaRoutingModule&#45;&gt;PoaModule -->
<g id="edge3" class="edge">
<title>PoaRoutingModule&#45;&gt;PoaModule</title>
<path fill="none" stroke="#000000" d="M259.2795,-122.1061C259.2795,-122.1061 259.2795,-140.991 259.2795,-140.991"/>
<polygon fill="#000000" stroke="#000000" points="255.7795,-140.9909 259.2795,-150.991 262.7795,-140.991 255.7795,-140.9909"/>
</g>
<!-- SharedModule -->
<g id="node5" class="node">
<title>SharedModule</title>
<polygon fill="#8dd3c7" stroke="#000000" points="122.4231,-122 119.4231,-126 98.4231,-126 95.4231,-122 23.5769,-122 23.5769,-86 122.4231,-86 122.4231,-122"/>
<text text-anchor="middle" x="73" y="-99.8" font-family="Times,serif" font-size="14.00" fill="#000000">SharedModule</text>
</g>
<!-- SharedModule&#45;&gt;PoaModule -->
<g id="edge4" class="edge">
<title>SharedModule&#45;&gt;PoaModule</title>
<path fill="none" stroke="#000000" d="M73,-122.1061C73,-141.3391 73,-169 73,-169 73,-169 242.9044,-169 242.9044,-169"/>
<polygon fill="#000000" stroke="#000000" points="242.9045,-172.5001 252.9044,-169 242.9044,-165.5001 242.9045,-172.5001"/>
</g>
</g>
</svg>
